<?xml version="1.0" standalone="no"?>
<!DOCTYPE svg PUBLIC "-//W3C//DTD SVG 20010904//EN"
 "http://www.w3.org/TR/2001/REC-SVG-20010904/DTD/svg10.dtd">
<svg version="1.0" xmlns="http://www.w3.org/2000/svg"
 width="300.000000pt" height="133.000000pt" viewBox="0 0 300.000000 133.000000"
 preserveAspectRatio="xMidYMid meet">
<metadata>
Created by potrace 1.10, written by Peter Selinger 2001-2011
</metadata>
<g transform="translate(0.000000,133.000000) scale(0.100000,-0.100000)"
fill="#000000" stroke="none">
<path d="M330 1127 l-265 -152 0 -310 0 -310 265 -152 c146 -84 267 -153 270
-153 3 0 118 65 255 144 l250 144 3 -144 c2 -129 4 -144 20 -144 16 0 17 40
17 615 0 575 -1 615 -17 615 -16 0 -18 -15 -20 -144 l-3 -144 -250 144 c-137
79 -252 144 -255 144 -3 0 -124 -69 -270 -153z m461 7 c101 -58 186 -108 188
-110 3 -3 -43 -53 -102 -112 -101 -102 -123 -132 -95 -132 7 0 63 50 124 111
l111 111 42 -21 41 -21 0 -294 0 -293 -242 -139 c-133 -76 -247 -140 -253
-142 -10 -2 -297 158 -318 177 -4 4 6 17 22 29 l29 21 38 -20 c50 -25 90 -24
144 4 58 29 60 55 5 81 -22 11 -59 19 -85 19 l-45 -1 0 47 c0 55 -34 126 -60
126 -46 0 -72 -133 -39 -197 16 -30 15 -31 -14 -61 l-30 -30 -76 42 -76 42 0
293 0 292 243 141 c133 78 247 142 253 142 7 1 94 -47 195 -105z m-431 -642
c9 -36 3 -83 -16 -113 -11 -18 -33 30 -34 73 0 41 18 90 31 82 5 -3 13 -22 19
-42z m152 -133 c21 -11 21 -12 3 -25 -25 -18 -116 -18 -141 0 -18 14 -18 15 6
25 34 13 107 13 132 0z"/>
<path d="M827 972 c-75 -75 -91 -102 -64 -102 20 0 170 157 162 170 -11 17
-18 12 -98 -68z"/>
<path d="M937 862 c-74 -74 -91 -102 -64 -102 20 0 170 156 163 169 -4 6 -10
11 -14 11 -4 0 -42 -35 -85 -78z"/>
<path d="M631 885 c-25 -32 -35 -81 -27 -127 l7 -33 -21 38 c-27 49 -48 45
-78 -13 -17 -33 -22 -55 -17 -82 9 -60 37 -108 76 -132 l38 -22 -53 0 -52 0 0
46 c0 55 -33 125 -59 125 -31 0 -57 -62 -52 -128 6 -92 59 -147 151 -155 44
-3 62 0 95 19 49 27 51 43 9 69 l-33 20 50 0 c59 0 120 28 120 56 0 28 -61 58
-121 59 l-52 0 0 49 0 49 20 -31 c28 -45 97 -76 157 -70 51 5 115 41 108 62
-2 6 -21 21 -43 34 -31 18 -49 22 -89 18 l-50 -4 3 51 c3 56 -22 119 -51 125
-8 2 -24 -9 -36 -23z m58 -100 c0 -22 -6 -51 -14 -65 l-14 -25 -15 37 c-9 21
-16 44 -16 53 0 9 7 32 16 53 l15 37 14 -25 c8 -14 14 -43 14 -65z m-109 -110
c0 -28 -6 -60 -14 -70 -13 -18 -14 -18 -25 3 -14 27 -14 107 0 134 11 21 12
21 25 3 8 -10 14 -42 14 -70z m264 13 c18 -10 18 -11 -5 -24 -42 -24 -160 -11
-144 16 17 27 103 32 149 8z m-374 -86 c9 -36 3 -83 -16 -113 -11 -18 -33 30
-34 73 0 45 16 91 30 83 5 -3 14 -23 20 -43z m264 -24 c18 -10 18 -11 -5 -24
-42 -24 -160 -11 -144 16 17 27 103 32 149 8z m-133 -100 c46 -13 48 -21 14
-36 -34 -16 -94 -15 -124 2 -26 14 -20 22 27 36 38 11 40 11 83 -2z"/>
<path d="M1230 1060 c0 -100 3 -120 15 -120 11 0 15 12 15 50 l0 50 50 0 c41
0 56 5 75 25 30 30 31 54 4 89 -19 24 -27 26 -90 26 l-69 0 0 -120z m138 56
c4 -35 -10 -46 -65 -46 l-43 0 0 41 0 40 53 -3 c49 -3 52 -5 55 -32z"/>
<path d="M1902 1163 c2 -10 10 -18 18 -18 8 0 16 8 18 18 2 12 -3 17 -18 17
-15 0 -20 -5 -18 -17z"/>
<path d="M2142 1163 c2 -10 10 -18 18 -18 8 0 16 8 18 18 2 12 -3 17 -18 17
-15 0 -20 -5 -18 -17z"/>
<path d="M1440 1030 c0 -73 3 -90 15 -90 12 0 15 13 15 59 0 61 15 91 46 91 8
0 14 7 14 15 0 20 -19 19 -42 -2 -17 -15 -18 -15 -18 0 0 10 -7 17 -15 17 -12
0 -15 -17 -15 -90z"/>
<path d="M1581 1103 c-68 -57 -23 -186 59 -167 30 7 60 32 60 51 0 20 -23 16
-38 -7 -22 -36 -82 -20 -82 22 0 15 9 18 60 18 60 0 60 0 60 29 0 20 -9 36
-26 50 -33 26 -65 27 -93 4z m77 -25 c25 -25 13 -38 -33 -38 -30 0 -45 4 -45
13 0 19 21 37 45 37 12 0 26 -5 33 -12z"/>
<path d="M1755 1095 c-47 -46 -26 -149 30 -156 36 -5 71 10 83 36 10 21 9 25
-6 25 -9 0 -23 -9 -30 -20 -26 -42 -72 -14 -72 45 0 62 52 88 83 43 11 -17 18
-20 26 -12 9 8 6 18 -9 37 -28 35 -72 36 -105 2z"/>
<path d="M1907 1114 c-4 -4 -7 -45 -7 -91 0 -72 2 -83 18 -83 15 0 17 10 16
87 -1 79 -9 105 -27 87z"/>
<path d="M1990 1100 c-36 -36 -19 -66 49 -85 26 -8 36 -16 36 -30 0 -30 -60
-34 -75 -6 -14 28 -32 27 -28 -1 7 -48 105 -61 129 -17 20 39 7 61 -46 79 -56
19 -66 43 -21 48 19 2 32 -2 38 -12 10 -18 38 -22 38 -6 0 21 -41 50 -70 50
-17 0 -39 -9 -50 -20z"/>
<path d="M2147 1114 c-4 -4 -7 -45 -7 -91 0 -73 2 -83 18 -83 15 0 17 10 17
87 -1 79 -9 106 -28 87z"/>
<path d="M2252 1113 c-18 -7 -42 -57 -42 -87 0 -66 54 -109 109 -87 33 14 51
48 51 97 0 60 -61 100 -118 77z m76 -35 c17 -17 15 -84 -4 -102 -49 -50 -110
27 -74 95 12 22 59 26 78 7z"/>
<path d="M2407 1113 c-4 -3 -7 -44 -7 -90 0 -76 2 -83 20 -83 17 0 18 5 13 50
-7 60 14 100 52 100 30 0 39 -26 33 -100 -2 -42 0 -50 15 -50 14 0 17 10 17
68 0 79 -17 112 -57 112 -15 0 -35 -7 -45 -17 -17 -15 -18 -15 -18 0 0 17 -11
22 -23 10z"/>
<path d="M1270 777 c-13 -7 -31 -24 -39 -38 -23 -42 3 -74 74 -90 67 -15 86
-38 55 -69 -11 -11 -30 -20 -43 -20 -28 0 -67 26 -67 46 0 8 -9 14 -20 14 -19
0 -19 -2 -7 -32 36 -89 206 -54 183 38 -7 26 -56 54 -95 54 -10 0 -28 8 -40
18 -20 16 -21 18 -6 40 21 29 60 28 91 -3 26 -26 44 -32 44 -14 0 23 -21 47
-51 58 -40 14 -48 14 -79 -2z"/>
<path d="M2515 660 c0 -89 3 -120 13 -120 6 0 12 5 12 12 0 9 3 9 12 0 19 -19
73 -14 93 8 28 31 31 100 5 133 -22 28 -72 38 -85 17 -15 -25 -27 -8 -21 30 5
34 4 40 -11 40 -16 0 -18 -12 -18 -120z m115 11 c15 -30 12 -66 -9 -92 -16
-20 -22 -22 -44 -12 -30 14 -42 58 -28 96 8 21 17 27 40 27 20 0 34 -7 41 -19z"/>
<path d="M2700 660 c0 -100 3 -120 15 -120 13 0 15 20 15 120 0 100 -2 120
-15 120 -12 0 -15 -20 -15 -120z"/>
<path d="M1800 745 c0 -14 -4 -25 -10 -25 -5 0 -10 -7 -10 -15 0 -8 4 -15 10
-15 5 0 10 -33 12 -72 3 -71 4 -73 31 -76 19 -2 27 1 27 12 0 9 -7 16 -15 16
-12 0 -15 13 -15 60 0 47 3 60 15 60 8 0 15 7 15 15 0 8 -7 15 -15 15 -9 0
-15 9 -15 25 0 16 -6 25 -15 25 -9 0 -15 -9 -15 -25z"/>
<path d="M1440 649 c0 -88 10 -109 53 -109 18 0 38 5 45 12 9 9 12 9 12 0 0
-7 7 -12 15 -12 12 0 15 17 15 90 0 73 -3 90 -15 90 -12 0 -15 -14 -15 -64 0
-65 -14 -96 -44 -96 -26 0 -36 26 -36 92 0 54 -3 68 -15 68 -12 0 -15 -15 -15
-71z"/>
<path d="M1633 694 c-22 -34 -9 -54 48 -75 48 -18 62 -44 30 -54 -28 -8 -61 3
-61 21 0 8 -7 14 -15 14 -18 0 -19 -21 -2 -42 29 -37 112 -25 123 18 10 38 -2
53 -51 65 -53 13 -65 27 -41 45 20 14 45 8 63 -15 9 -12 15 -13 23 -4 19 18
-23 53 -65 53 -26 0 -39 -6 -52 -26z"/>
<path d="M1907 702 c-34 -38 -13 -58 23 -22 15 15 25 17 42 11 38 -14 27 -35
-26 -48 -27 -7 -53 -18 -58 -25 -12 -19 -10 -52 4 -66 15 -15 62 -16 88 -2 13
7 21 7 25 0 8 -13 45 -13 45 -1 0 5 -5 11 -12 13 -8 3 -11 24 -9 60 2 46 -1
60 -18 77 -27 27 -82 28 -104 3z m93 -92 c0 -26 -43 -54 -70 -45 -38 12 -19
49 30 58 14 2 28 5 33 6 4 0 7 -8 7 -19z"/>
<path d="M2070 630 c0 -73 3 -90 15 -90 12 0 15 17 15 90 0 73 -3 90 -15 90
-12 0 -15 -17 -15 -90z"/>
<path d="M2140 630 c0 -79 2 -90 18 -90 15 0 17 9 17 65 0 70 9 85 51 85 28 0
34 -17 34 -91 0 -46 3 -59 15 -59 22 0 21 127 -1 158 -18 26 -60 29 -86 5 -17
-15 -18 -15 -18 0 0 10 -7 17 -15 17 -12 0 -15 -17 -15 -90z"/>
<path d="M2352 704 c-22 -15 -30 -44 -12 -44 6 0 19 9 30 20 22 22 63 15 68
-13 2 -12 -9 -17 -43 -22 -64 -10 -94 -55 -59 -89 18 -18 75 -21 91 -5 8 8 13
8 17 0 9 -14 46 -14 46 -1 0 6 -4 10 -10 10 -6 0 -10 28 -10 64 0 45 -5 69
-16 80 -20 20 -73 20 -102 0z m88 -93 c0 -42 -55 -67 -80 -36 -16 20 1 42 38
48 15 2 30 5 35 6 4 0 7 -8 7 -18z"/>
<path d="M2795 695 c-48 -47 -25 -152 33 -156 50 -3 92 18 92 48 0 20 -20 16
-40 -9 -15 -19 -22 -21 -46 -13 -18 7 -30 19 -32 33 -3 21 0 22 62 22 l66 0
-6 28 c-17 69 -83 94 -129 47z m89 -21 c11 -29 6 -34 -39 -34 -46 0 -58 13
-33 38 17 17 65 15 72 -4z"/>
<path d="M1248 260 c-39 -103 -43 -120 -28 -120 11 0 23 14 31 36 13 35 16 37
62 38 47 1 48 0 58 -36 7 -28 15 -38 30 -38 16 0 19 4 14 17 -30 74 -75 200
-75 211 0 6 -10 12 -23 12 -21 0 -29 -14 -69 -120z m85 28 l16 -48 -39 0 -39
0 13 33 c7 17 16 41 20 51 8 24 9 22 29 -36z"/>
<path d="M2165 260 c0 -108 2 -120 18 -120 15 0 17 12 16 120 -2 103 -4 120
-18 120 -14 0 -16 -17 -16 -120z"/>
<path d="M2240 346 c0 -14 -4 -26 -10 -26 -5 0 -10 -7 -10 -15 0 -8 6 -15 13
-15 8 0 11 -17 9 -60 -4 -65 7 -90 39 -90 11 0 19 7 19 15 0 8 -7 15 -15 15
-12 0 -15 13 -15 60 0 47 3 60 15 60 8 0 15 7 15 15 0 8 -7 15 -16 15 -10 0
-14 7 -12 22 2 15 -3 24 -14 26 -14 3 -18 -3 -18 -22z"/>
<path d="M1455 295 c-51 -50 -18 -155 49 -155 14 0 28 5 31 10 12 19 26 10 20
-12 -13 -44 -52 -60 -79 -32 -9 8 -24 14 -33 12 -33 -6 21 -48 62 -48 63 0 75
24 75 145 0 93 -9 130 -23 93 -4 -10 -7 -10 -18 0 -21 19 -58 14 -84 -13z m94
-36 c14 -40 -4 -83 -37 -87 -32 -5 -52 15 -52 50 0 45 17 68 49 68 24 0 31 -6
40 -31z"/>
<path d="M1630 230 c0 -72 3 -90 15 -90 11 0 15 16 17 68 3 58 6 68 25 77 13
5 25 15 27 22 7 17 -26 17 -42 1 -9 -9 -12 -9 -12 0 0 7 -7 12 -15 12 -12 0
-15 -17 -15 -90z"/>
<path d="M1740 230 c0 -73 3 -90 15 -90 12 0 15 17 15 90 0 73 -3 90 -15 90
-12 0 -15 -17 -15 -90z"/>
<path d="M1821 294 c-47 -59 -13 -154 55 -154 36 0 74 28 74 55 0 22 -28 18
-35 -4 -3 -11 -16 -23 -27 -27 -28 -8 -58 27 -58 67 0 28 30 69 50 69 6 0 18
-9 27 -20 17 -20 43 -27 43 -12 0 4 -7 18 -16 30 -23 33 -86 31 -113 -4z"/>
<path d="M1980 242 c0 -47 5 -83 12 -90 16 -16 70 -16 86 0 9 9 12 9 12 0 0
-7 7 -12 15 -12 12 0 15 17 15 90 0 73 -3 90 -15 90 -12 0 -15 -13 -15 -56 0
-59 -10 -88 -35 -98 -35 -13 -45 4 -45 80 0 59 -3 74 -15 74 -12 0 -15 -15
-15 -78z"/>
<path d="M2330 246 c0 -54 4 -79 16 -90 18 -19 65 -21 82 -4 9 9 12 9 12 0 0
-7 7 -12 15 -12 12 0 15 17 15 90 0 73 -3 90 -15 90 -12 0 -15 -14 -15 -65 0
-58 -3 -66 -25 -81 -40 -26 -55 -5 -55 77 0 55 -3 69 -15 69 -12 0 -15 -15
-15 -74z"/>
<path d="M2520 230 c0 -73 3 -90 15 -90 12 0 15 14 15 63 0 65 11 87 42 87 10
0 18 7 18 15 0 18 -31 20 -48 3 -9 -9 -12 -9 -12 0 0 7 -7 12 -15 12 -12 0
-15 -17 -15 -90z"/>
<path d="M2645 295 c-32 -31 -34 -91 -4 -129 29 -37 89 -37 119 1 26 34 8 44
-24 14 -27 -26 -48 -27 -69 -3 -31 34 -21 42 49 42 l67 0 -7 33 c-13 65 -85
89 -131 42z m95 -24 c15 -30 14 -31 -40 -31 -34 0 -50 4 -50 13 0 38 71 52 90
18z"/>
</g>
</svg>
